<svg width="1220" height="232" version="0.0.1" xmlns="http://www.w3.org/2000/svg" style="vector-effect: non-scaling-stroke;" stroke="null">
  <title>Cloud</title>
  <desc>Created by themebins</desc>
 <g>
  <title>background</title>
  <rect fill="#ffffff" opacity="0" id="canvas_background" height="232" width="1222" y="-1" x="-1"/>
 </g>
 <g>
  <path stroke="#ffffff" id="svg_1" d="m1148.43279,177.144192c0.356652,-3.810413 0.563135,-7.659908 0.563135,-11.548484c0,-67.454087 -52.521765,-122.128634 -117.319883,-122.128634c-50.287995,0 -93.067517,33.004042 -109.755097,79.31522c-11.056226,-12.623216 -26.824018,-20.693476 -44.525242,-20.693476c-33.37516,0 -60.424433,28.157978 -60.424433,62.901132c0,4.103522 0.431737,8.109341 1.163813,11.978376c-44.525242,7.640367 -78.594936,47.600856 -78.594936,96.10058c0,53.971086 42.028675,97.702907 93.855906,97.702907l297.992503,0c51.846003,0 93.855906,-43.731821 93.855906,-97.702907c0.018771,-47.893965 -33.131135,-87.561346 -76.811674,-95.924714z" stroke-opacity="0" stroke-width="1.5" fill="#ffffff"/>
  <path stroke="#ffffff" id="svg_9" d="m-3311.829001,-2091.797141c0.035279,-0.259924 0.055703,-0.522514 0.055703,-0.78777c0,-4.601325 -5.195268,-8.330905 -11.604871,-8.330905c-4.974312,0 -9.205912,2.251344 -10.856588,5.410423c-1.093643,-0.861082 -2.653338,-1.411588 -4.404281,-1.411588c-3.301354,0 -5.976973,1.920773 -5.976973,4.290749c0,0.279918 0.042706,0.553172 0.11512,0.817095c-4.40428,0.521181 -7.774335,3.247053 -7.774335,6.555422c0,3.681593 4.157329,6.664724 9.283897,6.664724l29.476372,0c5.128425,0 9.283897,-2.98313 9.283897,-6.664724c0.001857,-3.267048 -3.277215,-5.972926 -7.597941,-6.543426z" stroke-opacity="0" stroke-width="1.5" fill="#e80404"/>
  <path stroke="#ffffff" id="svg_10" d="m-3345.274789,-2081.733564c0.035279,-0.268589 0.055703,-0.539932 0.055703,-0.81403c0,-4.754703 -5.195268,-8.608602 -11.604871,-8.608602c-4.974312,0 -9.205912,2.326389 -10.856588,5.590771c-1.093643,-0.889785 -2.653338,-1.458642 -4.404281,-1.458642c-3.301354,0 -5.976973,1.984799 -5.976973,4.433775c0,0.289249 0.042706,0.571611 0.11512,0.844332c-4.40428,0.538554 -7.774335,3.355289 -7.774335,6.773937c0,3.804314 4.157329,6.886882 9.283897,6.886882l29.476372,0c5.128425,0 9.283897,-3.082568 9.283897,-6.886882c0.001857,-3.37595 -3.277215,-6.172024 -7.597941,-6.761541z" stroke-opacity="0" stroke-width="1.5" fill="#e80404"/>
  <path stroke="#ffffff" id="svg_12" d="m-3404.522603,-2087.989337c0.035279,-0.268589 0.055703,-0.539932 0.055703,-0.81403c0,-4.754703 -5.195268,-8.608602 -11.604871,-8.608602c-4.974312,0 -9.205912,2.326389 -10.856588,5.590771c-1.093643,-0.889785 -2.653338,-1.458642 -4.404281,-1.458642c-3.301354,0 -5.976973,1.984799 -5.976973,4.433775c0,0.289249 0.042706,0.571611 0.11512,0.844332c-4.40428,0.538554 -7.774335,3.355289 -7.774335,6.773937c0,3.804314 4.157329,6.886882 9.283897,6.886882l29.476372,0c5.128425,0 9.283897,-3.082568 9.283897,-6.886882c0.001857,-3.37595 -3.277215,-6.172024 -7.597941,-6.761541z" stroke-opacity="0" stroke-width="1.5" fill="#e80404"/>
  <path stroke="#ffffff" id="svg_13" d="m-3293.572749,-2091.252806c0.035279,-0.268589 0.055703,-0.539932 0.055703,-0.81403c0,-4.754703 -5.195268,-8.608602 -11.604871,-8.608602c-4.974312,0 -9.205912,2.326389 -10.856588,5.590771c-1.093643,-0.889785 -2.653338,-1.458642 -4.404281,-1.458642c-3.301354,0 -5.976973,1.984799 -5.976973,4.433775c0,0.289249 0.042706,0.571611 0.11512,0.844332c-4.40428,0.538554 -7.774335,3.355289 -7.774335,6.773937c0,3.804314 4.157329,6.886882 9.283897,6.886882l29.476372,0c5.128425,0 9.283897,-3.082568 9.283897,-6.886882c0.001857,-3.37595 -3.277215,-6.172024 -7.597941,-6.761541z" stroke-opacity="0" stroke-width="1.5" fill="#e80404"/>
 </g>
</svg>