<svg width="1400" height="30" version="0.1" xmlns="http://www.w3.org/2000/svg" style="vector-effect: non-scaling-stroke;" stroke="null">

<title>waves</title>
<desc>Created by themebins</desc>
 <g>
  <rect fill="#ffffff" opacity="0" id="canvas_background" height="32" width="1402" y="-1" x="-1"/>
 </g>
 <g>
  <path stroke="#ffffff" id="svg_1" d="m49.493079,24.215681c0.045025,-0.493135 0.071092,-0.991328 0.071092,-1.494578c0,-8.729752 -6.630531,-15.805605 -14.810871,-15.805605c-6.348532,0 -11.749168,4.271307 -13.855866,10.264792c-1.395777,-1.633667 -3.386358,-2.678102 -5.621022,-2.678102c-4.213397,0 -7.628191,3.64414 -7.628191,8.140519c0,0.531068 0.054504,1.049492 0.146924,1.550214c-5.621022,0.988799 -9.922099,6.160393 -9.922099,12.437115c0,6.984813 5.305847,12.644484 11.848697,12.644484l37.619613,0c6.54522,0 11.848697,-5.659671 11.848697,-12.644484c0.00237,-6.198326 -4.18259,-11.331987 -9.696974,-12.414355z" stroke-opacity="0" stroke-width="1.5" fill="#ffffff"/>
  <path stroke="#ffffff" id="svg_9" d="m-3311.829001,-2091.797141c0.035279,-0.259924 0.055703,-0.522514 0.055703,-0.78777c0,-4.601325 -5.195268,-8.330905 -11.604871,-8.330905c-4.974312,0 -9.205912,2.251344 -10.856588,5.410423c-1.093643,-0.861082 -2.653338,-1.411588 -4.404281,-1.411588c-3.301354,0 -5.976973,1.920773 -5.976973,4.290749c0,0.279918 0.042706,0.553172 0.11512,0.817095c-4.40428,0.521181 -7.774335,3.247053 -7.774335,6.555422c0,3.681593 4.157329,6.664724 9.283897,6.664724l29.476372,0c5.128425,0 9.283897,-2.98313 9.283897,-6.664724c0.001857,-3.267048 -3.277215,-5.972926 -7.597941,-6.543426z" stroke-opacity="0" stroke-width="1.5" fill="#e80404"/>
  <path stroke="#ffffff" id="svg_10" d="m-3345.274789,-2081.733564c0.035279,-0.268589 0.055703,-0.539932 0.055703,-0.81403c0,-4.754703 -5.195268,-8.608602 -11.604871,-8.608602c-4.974312,0 -9.205912,2.326389 -10.856588,5.590771c-1.093643,-0.889785 -2.653338,-1.458642 -4.404281,-1.458642c-3.301354,0 -5.976973,1.984799 -5.976973,4.433775c0,0.289249 0.042706,0.571611 0.11512,0.844332c-4.40428,0.538554 -7.774335,3.355289 -7.774335,6.773937c0,3.804314 4.157329,6.886882 9.283897,6.886882l29.476372,0c5.128425,0 9.283897,-3.082568 9.283897,-6.886882c0.001857,-3.37595 -3.277215,-6.172024 -7.597941,-6.761541z" stroke-opacity="0" stroke-width="1.5" fill="#e80404"/>
  <path stroke="#ffffff" id="svg_12" d="m-3404.522603,-2087.989337c0.035279,-0.268589 0.055703,-0.539932 0.055703,-0.81403c0,-4.754703 -5.195268,-8.608602 -11.604871,-8.608602c-4.974312,0 -9.205912,2.326389 -10.856588,5.590771c-1.093643,-0.889785 -2.653338,-1.458642 -4.404281,-1.458642c-3.301354,0 -5.976973,1.984799 -5.976973,4.433775c0,0.289249 0.042706,0.571611 0.11512,0.844332c-4.40428,0.538554 -7.774335,3.355289 -7.774335,6.773937c0,3.804314 4.157329,6.886882 9.283897,6.886882l29.476372,0c5.128425,0 9.283897,-3.082568 9.283897,-6.886882c0.001857,-3.37595 -3.277215,-6.172024 -7.597941,-6.761541z" stroke-opacity="0" stroke-width="1.5" fill="#e80404"/>
  <path stroke="#ffffff" id="svg_13" d="m-3293.572749,-2091.252806c0.035279,-0.268589 0.055703,-0.539932 0.055703,-0.81403c0,-4.754703 -5.195268,-8.608602 -11.604871,-8.608602c-4.974312,0 -9.205912,2.326389 -10.856588,5.590771c-1.093643,-0.889785 -2.653338,-1.458642 -4.404281,-1.458642c-3.301354,0 -5.976973,1.984799 -5.976973,4.433775c0,0.289249 0.042706,0.571611 0.11512,0.844332c-4.40428,0.538554 -7.774335,3.355289 -7.774335,6.773937c0,3.804314 4.157329,6.886882 9.283897,6.886882l29.476372,0c5.128425,0 9.283897,-3.082568 9.283897,-6.886882c0.001857,-3.37595 -3.277215,-6.172024 -7.597941,-6.761541z" stroke-opacity="0" stroke-width="1.5" fill="#e80404"/>
  <path stroke="#ffffff" id="svg_16" d="m101.953038,23.059734c0.040944,-0.469608 0.064649,-0.944033 0.064649,-1.423274c0,-8.313274 -6.029583,-15.051552 -13.468511,-15.051552c-5.773142,0 -10.6843,4.067531 -12.600061,9.77508c-1.269272,-1.555729 -3.07944,-2.550335 -5.111569,-2.550335c-3.831522,0 -6.936822,3.470286 -6.936822,7.752151c0,0.505732 0.049564,0.999423 0.133608,1.476256c-5.111569,0.941625 -9.022825,5.866493 -9.022825,11.843765c0,6.651582 4.824959,12.041242 10.774808,12.041242l34.210016,0c5.952004,0 10.774808,-5.38966 10.774808,-12.041242c0.002155,-5.902617 -3.803507,-10.79136 -8.818103,-11.822091z" stroke-opacity="0" stroke-width="1.5" fill="#ffffff"/>
  <path stroke="#ffffff" id="svg_18" d="m159.181918,24.215681c0.045025,-0.493135 0.071092,-0.991327 0.071092,-1.494578c0,-8.729752 -6.630531,-15.805605 -14.810871,-15.805605c-6.348532,0 -11.749168,4.271307 -13.855867,10.264792c-1.395776,-1.633667 -3.386357,-2.678101 -5.621021,-2.678101c-4.213397,0 -7.628192,3.64414 -7.628192,8.140519c0,0.531068 0.054504,1.049492 0.146924,1.550213c-5.621022,0.988799 -9.922099,6.160393 -9.922099,12.437115c0,6.984813 5.305847,12.644484 11.848697,12.644484l37.619614,0c6.54522,0 11.848697,-5.659671 11.848697,-12.644484c0.00237,-6.198326 -4.18259,-11.331987 -9.696974,-12.414355z" stroke-opacity="0" stroke-width="1.5" fill="#ffffff"/>
  <path stroke="#ffffff" id="svg_19" d="m211.641877,23.059734c0.040944,-0.469608 0.064649,-0.944033 0.064649,-1.423274c0,-8.313273 -6.029582,-15.051552 -13.46851,-15.051552c-5.773142,0 -10.6843,4.067531 -12.600061,9.77508c-1.269272,-1.555729 -3.07944,-2.550335 -5.111569,-2.550335c-3.831522,0 -6.936821,3.470286 -6.936821,7.752151c0,0.505732 0.049564,0.999423 0.133608,1.476257c-5.111569,0.941624 -9.022825,5.866492 -9.022825,11.843764c0,6.651582 4.824959,12.041242 10.774808,12.041242l34.210016,0c5.952004,0 10.774809,-5.38966 10.774809,-12.041242c0.002154,-5.902616 -3.803508,-10.79136 -8.818104,-11.822091z" stroke-opacity="0" stroke-width="1.5" fill="#ffffff"/>
  <path stroke="#ffffff" id="svg_20" d="m319.602475,25.226113c0.045025,-0.493135 0.071092,-0.991327 0.071092,-1.494578c0,-8.729752 -6.630531,-15.805605 -14.810871,-15.805605c-6.348532,0 -11.749168,4.271307 -13.855867,10.264792c-1.395776,-1.633667 -3.386357,-2.678101 -5.621021,-2.678101c-4.213397,0 -7.628192,3.64414 -7.628192,8.140519c0,0.531068 0.054504,1.049492 0.146924,1.550213c-5.621022,0.988799 -9.922099,6.160393 -9.922099,12.437115c0,6.984813 5.305847,12.644484 11.848697,12.644484l37.619614,0c6.54522,0 11.848697,-5.659671 11.848697,-12.644484c0.00237,-6.198326 -4.18259,-11.331987 -9.696974,-12.414355z" stroke-opacity="0" stroke-width="1.5" fill="#ffffff"/>
  <path stroke="#ffffff" id="svg_21" d="m372.062434,24.070166c0.040944,-0.469608 0.064649,-0.944033 0.064649,-1.423274c0,-8.313273 -6.029582,-15.051552 -13.46851,-15.051552c-5.773142,0 -10.6843,4.067531 -12.600061,9.77508c-1.269272,-1.555729 -3.07944,-2.550335 -5.111569,-2.550335c-3.831522,0 -6.936821,3.470286 -6.936821,7.752151c0,0.505732 0.049564,0.999423 0.133608,1.476257c-5.111569,0.941624 -9.022825,5.866492 -9.022825,11.843764c0,6.651582 4.824959,12.041242 10.774808,12.041242l34.210016,0c5.952004,0 10.774809,-5.38966 10.774809,-12.041242c0.002154,-5.902616 -3.803508,-10.79136 -8.818104,-11.822091z" stroke-opacity="0" stroke-width="1.5" fill="#ffffff"/>
  <path stroke="#ffffff" id="svg_22" d="m429.291314,25.226113c0.045025,-0.493135 0.071092,-0.991327 0.071092,-1.494578c0,-8.729752 -6.630531,-15.805605 -14.810871,-15.805605c-6.348532,0 -11.749168,4.271307 -13.855867,10.264792c-1.395776,-1.633667 -3.386357,-2.678101 -5.621021,-2.678101c-4.213397,0 -7.628192,3.64414 -7.628192,8.140519c0,0.531068 0.054504,1.049492 0.146924,1.550213c-5.621022,0.988799 -9.922099,6.160393 -9.922099,12.437115c0,6.984813 5.305847,12.644484 11.848697,12.644484l37.619614,0c6.54522,0 11.848697,-5.659671 11.848697,-12.644484c0.00237,-6.198326 -4.18259,-11.331987 -9.696974,-12.414355z" stroke-opacity="0" stroke-width="1.5" fill="#ffffff"/>
  <path stroke="#ffffff" id="svg_23" d="m264.184346,23.56495c0.040944,-0.469608 0.064649,-0.944033 0.064649,-1.423274c0,-8.313273 -6.029582,-15.051552 -13.46851,-15.051552c-5.773142,0 -10.6843,4.067531 -12.600061,9.77508c-1.269272,-1.555729 -3.07944,-2.550335 -5.111569,-2.550335c-3.831522,0 -6.936821,3.470286 -6.936821,7.752151c0,0.505732 0.049564,0.999423 0.133608,1.476257c-5.111569,0.941624 -9.022825,5.866492 -9.022825,11.843764c0,6.651582 4.824959,12.041242 10.774808,12.041242l34.210016,0c5.952004,0 10.774809,-5.38966 10.774809,-12.041242c0.002154,-5.902616 -3.803508,-10.79136 -8.818104,-11.822091z" stroke-opacity="0" stroke-width="1.5" fill="#ffffff"/>
  <path stroke="#ffffff" id="svg_32" d="m539.304976,24.215681c0.045025,-0.493135 0.071092,-0.991327 0.071092,-1.494578c0,-8.729752 -6.630531,-15.805605 -14.810871,-15.805605c-6.348532,0 -11.749168,4.271307 -13.855867,10.264792c-1.395776,-1.633667 -3.386357,-2.678101 -5.621021,-2.678101c-4.213397,0 -7.628192,3.64414 -7.628192,8.140519c0,0.531068 0.054504,1.049492 0.146924,1.550213c-5.621022,0.988799 -9.922099,6.160393 -9.922099,12.437115c0,6.984813 5.305847,12.644484 11.848697,12.644484l37.619614,0c6.54522,0 11.848697,-5.659671 11.848697,-12.644484c0.00237,-6.198326 -4.18259,-11.331987 -9.696974,-12.414355z" stroke-opacity="0" stroke-width="1.5" fill="#ffffff"/>
  <path stroke="#ffffff" id="svg_33" d="m591.764935,23.059734c0.040944,-0.469608 0.064649,-0.944033 0.064649,-1.423274c0,-8.313273 -6.029582,-15.051552 -13.46851,-15.051552c-5.773142,0 -10.6843,4.067531 -12.600061,9.77508c-1.269272,-1.555729 -3.07944,-2.550335 -5.111569,-2.550335c-3.831522,0 -6.936821,3.470286 -6.936821,7.752151c0,0.505732 0.049564,0.999423 0.133608,1.476257c-5.111569,0.941624 -9.022825,5.866492 -9.022825,11.843764c0,6.651582 4.824959,12.041242 10.774808,12.041242l34.210016,0c5.952004,0 10.774809,-5.38966 10.774809,-12.041242c0.002154,-5.902616 -3.803508,-10.79136 -8.818104,-11.822091z" stroke-opacity="0" stroke-width="1.5" fill="#ffffff"/>
  <path stroke="#ffffff" id="svg_34" d="m648.993815,24.215681c0.045025,-0.493135 0.071092,-0.991327 0.071092,-1.494578c0,-8.729752 -6.630531,-15.805605 -14.810871,-15.805605c-6.348532,0 -11.749168,4.271307 -13.855867,10.264792c-1.395776,-1.633667 -3.386357,-2.678101 -5.621021,-2.678101c-4.213397,0 -7.628192,3.64414 -7.628192,8.140519c0,0.531068 0.054504,1.049492 0.146924,1.550213c-5.621022,0.988799 -9.922099,6.160393 -9.922099,12.437115c0,6.984813 5.305847,12.644484 11.848697,12.644484l37.619614,0c6.54522,0 11.848697,-5.659671 11.848697,-12.644484c0.00237,-6.198326 -4.18259,-11.331987 -9.696974,-12.414355z" stroke-opacity="0" stroke-width="1.5" fill="#ffffff"/>
  <path stroke="#ffffff" id="svg_35" d="m701.453774,23.059734c0.040944,-0.469608 0.064649,-0.944033 0.064649,-1.423274c0,-8.313273 -6.029582,-15.051552 -13.46851,-15.051552c-5.773142,0 -10.6843,4.067531 -12.600061,9.77508c-1.269272,-1.555729 -3.07944,-2.550335 -5.111569,-2.550335c-3.831522,0 -6.936821,3.470286 -6.936821,7.752151c0,0.505732 0.049564,0.999423 0.133608,1.476257c-5.111569,0.941624 -9.022825,5.866492 -9.022825,11.843764c0,6.651582 4.824959,12.041242 10.774808,12.041242l34.210016,0c5.952004,0 10.774809,-5.38966 10.774809,-12.041242c0.002154,-5.902616 -3.803508,-10.79136 -8.818104,-11.822091z" stroke-opacity="0" stroke-width="1.5" fill="#ffffff"/>
  <path stroke="#ffffff" id="svg_36" d="m809.414372,25.226113c0.045025,-0.493135 0.071092,-0.991327 0.071092,-1.494578c0,-8.729752 -6.630531,-15.805605 -14.810871,-15.805605c-6.348532,0 -11.749168,4.271307 -13.855867,10.264792c-1.395776,-1.633667 -3.386357,-2.678101 -5.621021,-2.678101c-4.213397,0 -7.628192,3.64414 -7.628192,8.140519c0,0.531068 0.054504,1.049492 0.146924,1.550213c-5.621022,0.988799 -9.922099,6.160393 -9.922099,12.437115c0,6.984813 5.305847,12.644484 11.848697,12.644484l37.619614,0c6.54522,0 11.848697,-5.659671 11.848697,-12.644484c0.00237,-6.198326 -4.18259,-11.331987 -9.696974,-12.414355z" stroke-opacity="0" stroke-width="1.5" fill="#ffffff"/>
  <path stroke="#ffffff" id="svg_37" d="m861.874331,24.070166c0.040944,-0.469608 0.064649,-0.944033 0.064649,-1.423274c0,-8.313273 -6.029582,-15.051552 -13.46851,-15.051552c-5.773142,0 -10.6843,4.067531 -12.600061,9.77508c-1.269272,-1.555729 -3.07944,-2.550335 -5.111569,-2.550335c-3.831522,0 -6.936821,3.470286 -6.936821,7.752151c0,0.505732 0.049564,0.999423 0.133608,1.476257c-5.111569,0.941624 -9.022825,5.866492 -9.022825,11.843764c0,6.651582 4.824959,12.041242 10.774808,12.041242l34.210016,0c5.952004,0 10.774809,-5.38966 10.774809,-12.041242c0.002154,-5.902616 -3.803508,-10.79136 -8.818104,-11.822091z" stroke-opacity="0" stroke-width="1.5" fill="#ffffff"/>
  <path stroke="#ffffff" id="svg_38" d="m756.679358,21.184285c0.045025,-0.493135 0.071092,-0.991327 0.071092,-1.494578c0,-8.729752 -6.630531,-15.805605 -14.810871,-15.805605c-6.348532,0 -11.749168,4.271307 -13.855867,10.264792c-1.395776,-1.633667 -3.386357,-2.678101 -5.621021,-2.678101c-4.213397,0 -7.628192,3.64414 -7.628192,8.140519c0,0.531068 0.054504,1.049492 0.146924,1.550213c-5.621022,0.988799 -9.922099,6.160393 -9.922099,12.437115c0,6.984813 5.305847,12.644484 11.848697,12.644484l37.619614,0c6.54522,0 11.848697,-5.659671 11.848697,-12.644484c0.00237,-6.198326 -4.18259,-11.331987 -9.696974,-12.414355z" stroke-opacity="0" stroke-width="1.5" fill="#ffffff"/>
  <path stroke="#ffffff" id="svg_39" d="m482.443041,23.56495c0.040944,-0.469608 0.064649,-0.944033 0.064649,-1.423274c0,-8.313273 -6.029582,-15.051552 -13.46851,-15.051552c-5.773142,0 -10.6843,4.067531 -12.600061,9.77508c-1.269272,-1.555729 -3.07944,-2.550335 -5.111569,-2.550335c-3.831522,0 -6.936821,3.470286 -6.936821,7.752151c0,0.505732 0.049564,0.999423 0.133608,1.476257c-5.111569,0.941624 -9.022825,5.866492 -9.022825,11.843764c0,6.651582 4.824959,12.041242 10.774808,12.041242l34.210016,0c5.952004,0 10.774809,-5.38966 10.774809,-12.041242c0.002154,-5.902616 -3.803508,-10.79136 -8.818104,-11.822091z" stroke-opacity="0" stroke-width="1.5" fill="#ffffff"/>
  <path stroke="#ffffff" id="svg_40" d="m972.155723,23.205235c0.045025,-0.493135 0.071092,-0.991327 0.071092,-1.494578c0,-8.729752 -6.630531,-15.805605 -14.810871,-15.805605c-6.348532,0 -11.749168,4.271307 -13.855867,10.264792c-1.395776,-1.633667 -3.386357,-2.678101 -5.621021,-2.678101c-4.213397,0 -7.628192,3.64414 -7.628192,8.140519c0,0.531068 0.054504,1.049492 0.146924,1.550213c-5.621022,0.988799 -9.922099,6.160393 -9.922099,12.437115c0,6.984813 5.305847,12.644484 11.848697,12.644484l37.619614,0c6.54522,0 11.848697,-5.659671 11.848697,-12.644484c0.00237,-6.198326 -4.18259,-11.331987 -9.696974,-12.414355z" stroke-opacity="0" stroke-width="1.5" fill="#ffffff"/>
  <path stroke="#ffffff" id="svg_41" d="m1025.626127,22.049288c0.040944,-0.469608 0.064649,-0.944033 0.064649,-1.423274c0,-8.313273 -6.029582,-15.051552 -13.46851,-15.051552c-5.773142,0 -10.6843,4.067531 -12.600061,9.77508c-1.269272,-1.555729 -3.07944,-2.550335 -5.111569,-2.550335c-3.831522,0 -6.936821,3.470286 -6.936821,7.752151c0,0.505732 0.049564,0.999423 0.133608,1.476257c-5.111569,0.941624 -9.022825,5.866492 -9.022825,11.843764c0,6.651582 4.824959,12.041242 10.774808,12.041242l34.210016,0c5.952004,0 10.774809,-5.38966 10.774809,-12.041242c0.002154,-5.902616 -3.803508,-10.79136 -8.818104,-11.822091z" stroke-opacity="0" stroke-width="1.5" fill="#ffffff"/>
  <path stroke="#ffffff" id="svg_42" d="m758.123162,24.215681c0.045025,-0.493135 0.071092,-0.991327 0.071092,-1.494578c0,-8.729752 -6.630531,-15.805605 -14.810871,-15.805605c-6.348532,0 -11.749168,4.271307 -13.855867,10.264792c-1.395776,-1.633667 -3.386357,-2.678101 -5.621021,-2.678101c-4.213397,0 -7.628192,3.64414 -7.628192,8.140519c0,0.531068 0.054504,1.049492 0.146924,1.550213c-5.621022,0.988799 -9.922099,6.160393 -9.922099,12.437115c0,6.984813 5.305847,12.644484 11.848697,12.644484l37.619614,0c6.54522,0 11.848697,-5.659671 11.848697,-12.644484c0.00237,-6.198326 -4.18259,-11.331987 -9.696974,-12.414355z" stroke-opacity="0" stroke-width="1.5" fill="#ffffff"/>
  <path stroke="#ffffff" id="svg_43" d="m1132.915336,22.049288c0.040944,-0.469608 0.064649,-0.944033 0.064649,-1.423274c0,-8.313273 -6.029582,-15.051552 -13.46851,-15.051552c-5.773142,0 -10.6843,4.067531 -12.600061,9.77508c-1.269272,-1.555729 -3.07944,-2.550335 -5.111569,-2.550335c-3.831522,0 -6.936821,3.470286 -6.936821,7.752151c0,0.505732 0.049564,0.999423 0.133608,1.476257c-5.111569,0.941624 -9.022825,5.866492 -9.022825,11.843764c0,6.651582 4.824959,12.041242 10.774808,12.041242l34.210016,0c5.952004,0 10.774809,-5.38966 10.774809,-12.041242c0.002154,-5.902616 -3.803508,-10.79136 -8.818104,-11.822091z" stroke-opacity="0" stroke-width="1.5" fill="#ffffff"/>
  <path stroke="#ffffff" id="svg_44" d="m916.522828,24.215667c0.045025,-0.493135 0.071092,-0.991327 0.071092,-1.494578c0,-8.729752 -6.630531,-15.805605 -14.810871,-15.805605c-6.348532,0 -11.749168,4.271307 -13.855867,10.264792c-1.395776,-1.633667 -3.386357,-2.678101 -5.621021,-2.678101c-4.213397,0 -7.628192,3.64414 -7.628192,8.140519c0,0.531068 0.054504,1.049492 0.146924,1.550213c-5.621022,0.988799 -9.922099,6.160393 -9.922099,12.437115c0,6.984813 5.305847,12.644484 11.848697,12.644484l37.619614,0c6.54522,0 11.848697,-5.659671 11.848697,-12.644484c0.00237,-6.198326 -4.18259,-11.331987 -9.696974,-12.414355z" stroke-opacity="0" stroke-width="1.5" fill="#ffffff"/>
  <path stroke="#ffffff" id="svg_45" d="m1080.131827,22.049274c0.040944,-0.469608 0.064649,-0.944033 0.064649,-1.423274c0,-8.313273 -6.029582,-15.051552 -13.46851,-15.051552c-5.773142,0 -10.6843,4.067531 -12.600061,9.77508c-1.269272,-1.555729 -3.07944,-2.550335 -5.111569,-2.550335c-3.831522,0 -6.936821,3.470286 -6.936821,7.752151c0,0.505732 0.049564,0.999423 0.133608,1.476257c-5.111569,0.941624 -9.022825,5.866492 -9.022825,11.843764c0,6.651582 4.824959,12.041242 10.774808,12.041242l34.210016,0c5.952004,0 10.774809,-5.38966 10.774809,-12.041242c0.002154,-5.902616 -3.803508,-10.79136 -8.818104,-11.822091z" stroke-opacity="0" stroke-width="1.5" fill="#ffffff"/>
  <path stroke="#ffffff" id="svg_46" d="m1189.530104,21.184285c0.045025,-0.493135 0.071092,-0.991327 0.071092,-1.494578c0,-8.729752 -6.630531,-15.805605 -14.810871,-15.805605c-6.348532,0 -11.749168,4.271307 -13.855867,10.264792c-1.395776,-1.633667 -3.386357,-2.678101 -5.621021,-2.678101c-4.213397,0 -7.628192,3.64414 -7.628192,8.140519c0,0.531068 0.054504,1.049492 0.146924,1.550213c-5.621022,0.988799 -9.922099,6.160393 -9.922099,12.437115c0,6.984813 5.305847,12.644484 11.848697,12.644484l37.619614,0c6.54522,0 11.848697,-5.659671 11.848697,-12.644484c0.00237,-6.198326 -4.18259,-11.331987 -9.696974,-12.414355z" stroke-opacity="0" stroke-width="1.5" fill="#ffffff"/>
  <path stroke="#ffffff" id="svg_47" d="m1245.006781,22.049288c0.040944,-0.469608 0.064649,-0.944033 0.064649,-1.423274c0,-8.313273 -6.029582,-15.051552 -13.46851,-15.051552c-5.773142,0 -10.6843,4.067531 -12.600061,9.77508c-1.269272,-1.555729 -3.07944,-2.550335 -5.111569,-2.550335c-3.831522,0 -6.936821,3.470286 -6.936821,7.752151c0,0.505732 0.049564,0.999423 0.133608,1.476257c-5.111569,0.941624 -9.022825,5.866492 -9.022825,11.843764c0,6.651582 4.824959,12.041242 10.774808,12.041242l34.210016,0c5.952004,0 10.774809,-5.38966 10.774809,-12.041242c0.002154,-5.902616 -3.803508,-10.79136 -8.818104,-11.822091z" stroke-opacity="0" stroke-width="1.5" fill="#ffffff"/>
  <path stroke="#ffffff" id="svg_48" d="m1352.182076,20.028396c0.040944,-0.469608 0.064649,-0.944033 0.064649,-1.423274c0,-8.313273 -6.029582,-15.051552 -13.46851,-15.051552c-5.773142,0 -10.6843,4.067531 -12.600061,9.77508c-1.269272,-1.555729 -3.07944,-2.550335 -5.111569,-2.550335c-3.831522,0 -6.936821,3.470286 -6.936821,7.752151c0,0.505732 0.049564,0.999423 0.133608,1.476257c-5.111569,0.941624 -9.022825,5.866492 -9.022825,11.843764c0,6.651582 4.824959,12.041242 10.774808,12.041242l34.210016,0c5.952004,0 10.774809,-5.38966 10.774809,-12.041242c0.002154,-5.902616 -3.803508,-10.79136 -8.818104,-11.822091z" stroke-opacity="0" stroke-width="1.5" fill="#ffffff"/>
  <path stroke="#ffffff" id="svg_49" d="m1299.512481,22.049274c0.040944,-0.469608 0.064649,-0.944033 0.064649,-1.423274c0,-8.313273 -6.029582,-15.051552 -13.46851,-15.051552c-5.773142,0 -10.6843,4.067531 -12.600061,9.77508c-1.269272,-1.555729 -3.07944,-2.550335 -5.111569,-2.550335c-3.831522,0 -6.936821,3.470286 -6.936821,7.752151c0,0.505732 0.049564,0.999423 0.133608,1.476257c-5.111569,0.941624 -9.022825,5.866492 -9.022825,11.843764c0,6.651582 4.824959,12.041242 10.774808,12.041242l34.210016,0c5.952004,0 10.774809,-5.38966 10.774809,-12.041242c0.002154,-5.902616 -3.803508,-10.79136 -8.818104,-11.822091z" stroke-opacity="0" stroke-width="1.5" fill="#ffffff"/>
  <path stroke="#ffffff" id="svg_50" d="m1408.910758,21.184285c0.045025,-0.493135 0.071092,-0.991327 0.071092,-1.494578c0,-8.729752 -6.630531,-15.805605 -14.810871,-15.805605c-6.348532,0 -11.749168,4.271307 -13.855867,10.264792c-1.395776,-1.633667 -3.386357,-2.678101 -5.621021,-2.678101c-4.213397,0 -7.628192,3.64414 -7.628192,8.140519c0,0.531068 0.054504,1.049492 0.146924,1.550213c-5.621022,0.988799 -9.922099,6.160393 -9.922099,12.437115c0,6.984813 5.305847,12.644484 11.848697,12.644484l37.619614,0c6.54522,0 11.848697,-5.659671 11.848697,-12.644484c0.00237,-6.198326 -4.18259,-11.331987 -9.696974,-12.414355z" stroke-opacity="0" stroke-width="1.5" fill="#ffffff"/>
 </g>
</svg>