<svg width="1440" height="410" viewBox="0 0 1440 410" version="1.1" xmlns="http://www.w3.org/2000/svg" xmlns:xlink="http://www.w3.org/1999/xlink">
<title>waves</title>
<desc>Created MSThemes</desc>
<g id="Canvas" transform="translate(4464 -21)">
<g id="waves">
<g id="Line">
<use xlink:href="#path0_fill" transform="translate(-4464 268)" fill="url(#paint0_linear)" fill-opacity="1"/>
</g>
<g id="Line">
<use xlink:href="#path1_fill" transform="matrix(-1 0 0 1 -2837 178)" fill="url(#paint1_linear)" fill-opacity="0.2"/>
</g>
<g id="Line">
<use xlink:href="#path2_fill" transform="matrix(-1 0 0 1 -1845 21)" fill="url(#paint2_linear)" fill-opacity="0.3"/>
</g>
</g>
</g>
<defs>
<linearGradient id="paint0_linear" x1="0" y1="0" x2="1" y2="0" gradientUnits="userSpaceOnUse" gradientTransform="matrix(2017.93 -163 2680.12 2100.09 -1508.97 -887.044)">
<stop offset="0" stop-color="#FFFFFF"/>
<stop offset="0.0958309" stop-color="#FFFFFF"/>
<stop offset="0.36216" stop-color="#FFFFFF"/>
<stop offset="0.798272" stop-color="#FFFFFF"/>
<stop offset="0.98895" stop-color="#FFFFFF"/>
</linearGradient>
<linearGradient id="paint1_linear" x1="0" y1="0" x2="1" y2="0" gradientUnits="userSpaceOnUse" gradientTransform="matrix(2081.19 -253 2764.13 3259.65 -1556.27 -1376.82)">
<stop offset="0" stop-color="#FFFFFF"/>
<stop offset="0.0958309" stop-color="#FFFFFF"/>
<stop offset="0.36216" stop-color="#FFFFFF"/>
<stop offset="0.798272" stop-color="#FFFFFF"/>
<stop offset="0.98895" stop-color="#FFFFFF"/>
</linearGradient>
<linearGradient id="paint2_linear" x1="0" y1="0" x2="1" y2="0" gradientUnits="userSpaceOnUse" gradientTransform="matrix(3311.54 -410 4398.22 5282.43 -2476.31 -2231.22)">
<stop offset="0" stop-color="#FFFFFF"/>
<stop offset="0.0958309" stop-color="#FFFFFF"/>
<stop offset="0.36216" stop-color="#FFFFFF"/>
<stop offset="0.798272" stop-color="#FFFFFF"/>
<stop offset="0.98895" stop-color="#FFFFFF"/>
</linearGradient>
<path id="path0_fill" d="M 252.534 55.7215C 90.9859 6.82911 0 55.7215 0 55.7215L 0 163L 1627 163L 1627 30.5633C 1588.41 43.5266 1368.79 147.81 1178.11 55.7215C 987.436 -36.3671 925.798 1.60791 771.789 55.7215C 617.781 109.835 414.082 104.614 252.534 55.7215Z"/>
<path id="path1_fill" d="M 260.45 86.488C 93.8379 10.5998 0 86.488 0 86.488L 0 253L 1678 253L 1678 47.4388C 1638.2 67.5596 1411.7 229.423 1215.04 86.488C 1018.39 -56.4471 954.818 2.49571 795.982 86.488C 637.146 170.48 427.062 162.376 260.45 86.488Z"/>
<path id="path2_fill" d="M 414.423 140.158C 149.313 17.1775 0 140.158 0 140.158L 0 410L 2670 410L 2670 76.877C 2606.67 109.484 2246.26 371.792 1933.35 140.158C 1620.44 -91.4755 1519.29 4.04443 1266.55 140.158C 1013.81 276.272 679.532 263.139 414.423 140.158Z"/>
</defs>
</svg>
